<svg width="151" height="151" viewBox="0 0 151 151" fill="none" xmlns="http://www.w3.org/2000/svg">
<path d="M83.1671 0.916748C91.5578 0.939123 95.8165 0.983873 99.4934 1.08829L100.94 1.1405C102.611 1.20016 104.259 1.27475 106.251 1.36425C114.186 1.73716 119.601 2.99017 124.352 4.83237C129.275 6.72679 133.421 9.29246 137.568 13.4318C141.362 17.159 144.297 21.6694 146.168 26.648C148.01 31.399 149.263 36.8137 149.636 44.7568C149.725 46.7407 149.8 48.389 149.86 50.0672L149.904 51.5141C150.016 55.1836 150.061 59.4423 150.076 67.8329L150.083 73.3968V83.1672C150.101 88.6074 150.044 94.0475 149.912 99.4861L149.867 100.933C149.807 102.611 149.733 104.259 149.643 106.243C149.27 114.186 148.002 119.594 146.168 124.352C144.297 129.331 141.362 133.841 137.568 137.568C133.841 141.362 129.331 144.297 124.352 146.168C119.601 148.01 114.186 149.263 106.251 149.636L100.94 149.86L99.4934 149.904C95.8165 150.009 91.5578 150.061 83.1671 150.076L77.6032 150.083H67.8403C62.3976 150.103 56.955 150.045 51.514 149.912L50.0671 149.867C48.2965 149.8 46.5264 149.723 44.7567 149.636C36.8211 149.263 31.4063 148.01 26.6479 146.168C21.6719 144.296 17.1642 141.361 13.4392 137.568C9.6425 133.842 6.70513 129.331 4.83228 124.352C2.99007 119.601 1.73707 114.186 1.36416 106.243L1.14041 100.933L1.10312 99.4861C0.965629 94.0476 0.90347 88.6075 0.916657 83.1672V67.8329C0.896013 62.3928 0.950713 56.9527 1.08074 51.5141L1.13295 50.0672C1.19262 48.389 1.2672 46.7407 1.3567 44.7568C1.72962 36.8137 2.98261 31.4064 4.82482 26.648C6.70204 21.6673 9.64457 17.1568 13.4467 13.4318C17.1695 9.63963 21.6746 6.70496 26.6479 4.83237C31.4063 2.99017 36.8136 1.73716 44.7567 1.36425C46.7407 1.27475 48.3964 1.20016 50.0671 1.1405L51.514 1.09575C56.9525 0.963234 62.3927 0.906048 67.8328 0.924206L83.1671 0.916748ZM75.5 38.2084C65.6096 38.2084 56.1243 42.1373 49.1308 49.1309C42.1373 56.1244 38.2083 65.6097 38.2083 75.5001C38.2083 85.3904 42.1373 94.8757 49.1308 101.869C56.1243 108.863 65.6096 112.792 75.5 112.792C85.3903 112.792 94.8756 108.863 101.869 101.869C108.863 94.8757 112.792 85.3904 112.792 75.5001C112.792 65.6097 108.863 56.1244 101.869 49.1309C94.8756 42.1373 85.3903 38.2084 75.5 38.2084ZM75.5 53.1251C78.4383 53.1246 81.348 53.7029 84.0628 54.8269C86.7776 55.9508 89.2445 57.5986 91.3226 59.6759C93.4006 61.7533 95.0492 64.2196 96.1741 66.9341C97.299 69.6486 97.8782 72.558 97.8787 75.4964C97.8792 78.4347 97.3009 81.3443 96.1769 84.0592C95.0529 86.774 93.4052 89.2409 91.3279 91.319C89.2505 93.397 86.7842 95.0456 84.0697 96.1705C81.3552 97.2954 78.4458 97.8746 75.5074 97.8751C69.5732 97.8751 63.8821 95.5177 59.6859 91.3216C55.4898 87.1255 53.1324 81.4343 53.1324 75.5001C53.1324 69.5659 55.4898 63.8747 59.6859 59.6786C63.8821 55.4824 69.5732 53.1251 75.5074 53.1251M114.664 27.0209C112.191 27.0209 109.82 28.0031 108.071 29.7515C106.323 31.4999 105.341 33.8712 105.341 36.3438C105.341 38.8164 106.323 41.1877 108.071 42.9361C109.82 44.6845 112.191 45.6667 114.664 45.6667C117.136 45.6667 119.508 44.6845 121.256 42.9361C123.004 41.1877 123.987 38.8164 123.987 36.3438C123.987 33.8712 123.004 31.4999 121.256 29.7515C119.508 28.0031 117.136 27.0209 114.664 27.0209Z" fill="#E4BBC1"/>
</svg>
