<svg width="150" height="150" viewBox="0 0 150 150" fill="none" xmlns="http://www.w3.org/2000/svg">
<path d="M75 0C33.6 0 0 33.6 0 75C0 116.4 33.6 150 75 150C116.4 150 150 116.4 150 75C150 33.6 116.4 0 75 0ZM109.8 51C108.675 62.85 103.8 91.65 101.325 104.925C100.275 110.55 98.175 112.425 96.225 112.65C91.875 113.025 88.575 109.8 84.375 107.025C77.775 102.675 74.025 99.975 67.65 95.775C60.225 90.9 65.025 88.2 69.3 83.85C70.425 82.725 89.625 65.25 90 63.675C90.0521 63.4365 90.0452 63.1888 89.9798 62.9535C89.9145 62.7183 89.7927 62.5025 89.625 62.325C89.175 61.95 88.575 62.1 88.05 62.175C87.375 62.325 76.875 69.3 56.4 83.1C53.4 85.125 50.7 86.175 48.3 86.1C45.6 86.025 40.5 84.6 36.675 83.325C31.95 81.825 28.275 81 28.575 78.375C28.725 77.025 30.6 75.675 34.125 74.25C56.025 64.725 70.575 58.425 77.85 55.425C98.7 46.725 102.975 45.225 105.825 45.225C106.425 45.225 107.85 45.375 108.75 46.125C109.5 46.725 109.725 47.55 109.8 48.15C109.725 48.6 109.875 49.95 109.8 51Z" fill="#C17BA0"/>
</svg>
