<svg width="151" height="151" viewBox="0 0 151 151" fill="none" xmlns="http://www.w3.org/2000/svg">
<path d="M11.3225 11.3225C0.875002 21.8695 0.875 38.7348 0.875 72.515V78.485C0.875 112.215 0.875002 129.081 11.3225 139.678C21.8695 150.125 38.7348 150.125 72.515 150.125H78.485C112.215 150.125 129.081 150.125 139.678 139.678C150.125 129.131 150.125 112.265 150.125 78.485V72.515C150.125 38.7845 150.125 21.9193 139.678 11.3225C129.131 0.875002 112.265 0.875 78.485 0.875H72.515C38.7845 0.875 21.9193 0.875002 11.3225 11.3225ZM26.0485 46.2967H43.1625C43.7098 74.7537 56.2468 86.7933 66.1968 89.2808V46.2967H82.266V70.8235C92.0668 69.7788 102.415 58.585 105.897 46.247H121.917C120.61 52.6334 118 58.6818 114.251 64.0145C110.502 69.3472 105.693 73.8499 100.126 77.2413C106.34 80.333 111.828 84.7073 116.227 90.0757C120.627 95.4441 123.838 101.684 125.648 108.385H107.987C104.206 96.594 94.7533 87.44 82.266 86.1963V108.385H80.276C46.247 108.385 26.8445 85.1017 26.0485 46.2967Z" fill="white"/>
</svg>
